<?xml version="1.0" standalone="no"?>
<!DOCTYPE svg PUBLIC "-//W3C//DTD SVG 20010904//EN"
 "http://www.w3.org/TR/2001/REC-SVG-20010904/DTD/svg10.dtd">
<svg version="1.0" xmlns="http://www.w3.org/2000/svg"
 width="700.000000pt" height="700.000000pt" viewBox="0 0 700.000000 700.000000"
 preserveAspectRatio="xMidYMid meet">
<metadata>
Created by potrace 1.14, written by Peter Selinger 2001-2017
</metadata>
<g transform="translate(0.000000,700.000000) scale(0.100000,-0.100000)"
fill="#000000" stroke="none">
<path d="M42 3493 l3 -3478 3468 -3 3467 -2 -1 2582 c0 1951 -3 2591 -12 2615
-26 71 -110 164 -334 369 -393 359 -688 580 -1073 804 -539 313 -1187 538
-1665 579 -77 7 -789 11 -1988 11 l-1867 0 2 -3477z m3813 3012 c180 -25 233
-43 289 -94 130 -122 230 -346 255 -572 19 -170 -17 -366 -95 -521 -102 -202
-307 -395 -499 -469 -308 -120 -655 -39 -906 211 -144 143 -221 307 -274 585
-14 74 -32 156 -41 184 -24 81 -100 131 -201 131 -144 0 -213 -106 -200 -309
59 -939 976 -1564 1802 -1228 409 167 745 567 836 997 18 84 23 138 23 275 1
170 -9 266 -45 444 -10 51 -19 100 -19 108 0 28 562 -269 785 -414 213 -139
553 -417 804 -656 l64 -61 -129 -126 c-859 -834 -1644 -1236 -2574 -1320 -260
-24 -660 16 -982 96 -677 170 -1310 544 -2032 1200 l-119 108 106 102 c827
794 1772 1277 2629 1344 142 11 389 4 523 -15z"/>
</g>
</svg>
