<svg xmlns="http://www.w3.org/2000/svg" version="1.1" xmlns:xlink="http://www.w3.org/1999/xlink" xmlns:svgjs="http://svgjs.com/svgjs" width="5.3354897in" height="5.3354897in"><svg width="5.3354897in" height="5.3354897in" viewBox="0 0 511.99995 511.99995" version="1.1" id="SvgjsSvg1003" xml:space="preserve" xmlns="http://www.w3.org/2000/svg" xmlns:svg="http://www.w3.org/2000/svg"><defs id="SvgjsDefs1002"></defs><ellipse style="fill:#ffffff;fill-opacity:1;stroke:none;stroke-width:0.999596" id="SvgjsEllipse1001" cx="255.16237" cy="158.3279" rx="225.47589" ry="135.70963"></ellipse><path id="SvgjsPath1000" style="display:inline;fill:#019df8;fill-opacity:1;stroke-width:1.30642" d="M 256.15619,1.7414833 C 171.78547,1.7806073 87.414482,1.7590543 3.043691,1.7590543 L 3.0378246,511.03165 H 510.77784 V 139.90827 c 0.0109,-1.09908 0.008,-2.19881 -0.0334,-3.29777 -0.0761,-2.00939 -0.47573,-4.08361 -1.31783,-6.16742 -2.36781,-5.85545 -7.90311,-10.99218 -12.26456,-15.40393 L 468.08026,88.540369 C 418.72264,47.156345 360.59109,15.334254 297.14157,4.334185 287.43991,2.6486278 278.00444,2.3421873 268.22357,1.9757636 Z M 510.77784,511.03165 H 3.0378343 Z M 299.99198,40.304015 c 13.49448,9.226465 34.80588,49.469706 12.47932,86.863315 -20.7836,34.46001 -58.2786,43.94407 -89.39157,23.75406 -35.04171,-22.7642 -28.87447,-60.602642 -35.72385,-69.138053 -7.6793,-9.578351 -27.83011,-9.483113 -28.03163,12.377806 2.22342,86.389597 100.645,136.781797 166.14375,71.371537 32.42039,-35.22344 33.90457,-68.355206 23.73064,-111.408082 49.67001,24.343387 67.03582,33.139358 121.44113,83.681002 C 415.15635,192.55611 354.90932,238.41073 267.23374,243.95019 172.61267,245.60678 105.31637,198.06372 43.736222,140.85711 185.63173,0.83594051 298.2491,39.115762 299.99198,40.304015 Z"></path></svg><style>@media (prefers-color-scheme: light) { :root { filter: none; } }
@media (prefers-color-scheme: dark) { :root { filter: none; } }
</style></svg>